# xmcd
#
# Track frame offsets:
#	150
#	14629
#	30995
#	48136
#	63422
#	82740
#	98792
#	115448
#	134264
#	151103
#	170653
#	188741
#	225036
#
# Disc length: 3063 seconds
#
# Revision: 1
# Processed by: cddbd v1.4PL0 Copyright (c) Steve Scherf et al.
# Submitted via: EasyCDDAExtractor 6.0.0.1
#
DISCID=910bf50d
DTITLE=Ken McCoy
DYEAR=1900
DGENRE=
TTITLE0=You Can't Go Back  
TTITLE1=Georgia On A Fast Train
TTITLE2=Living On Mexican Time
TTITLE3=Nowhere Town
TTITLE4=You're The Reason
TTITLE5=What Was I Thinking
TTITLE6=Quintana Rose
TTITLE7=Southhnd For Texas
TTITLE8=Along Came You
TTITLE9=Dance With The Singer
TTITLE10=Wh The Lights Go Out
TTITLE11=Turn The Page
TTITLE12=Quintana Rose (Out Take)
EXTD=
EXTT0=
EXTT1=
EXTT2=
EXTT3=
EXTT4=
EXTT5=
EXTT6=
EXTT7=
EXTT8=
EXTT9=
EXTT10=
EXTT11=
EXTT12=
PLAYORDER=
